<?xml version="1.0" standalone="no"?>
<!DOCTYPE svg PUBLIC "-//W3C//DTD SVG 20010904//EN"
 "http://www.w3.org/TR/2001/REC-SVG-20010904/DTD/svg10.dtd">
<svg version="1.0" xmlns="http://www.w3.org/2000/svg"
 width="400.000000pt" height="102.000000pt" viewBox="0 0 400.000000 102.000000"
 preserveAspectRatio="xMidYMid meet">

<g transform="translate(0.000000,102.000000) scale(0.100000,-0.100000)"
fill="#000000" stroke="none">
<path d="M215 970 c-84 -14 -144 -59 -186 -140 -23 -43 -24 -55 -27 -308 l-4
-262 66 0 65 0 3 103 3 102 110 5 c120 6 150 16 205 72 49 48 70 102 70 179 0
164 -138 278 -305 249z m138 -158 c24 -25 31 -41 35 -85 4 -49 2 -57 -28 -90
-38 -44 -85 -59 -165 -55 l-60 3 -3 65 c-4 86 10 131 55 170 33 29 41 32 86
27 38 -3 56 -11 80 -35z"/>
<path d="M750 775 c-61 -19 -115 -66 -148 -129 -23 -43 -27 -63 -27 -131 1
-70 4 -87 30 -134 66 -120 203 -166 321 -106 27 14 50 25 52 25 1 0 2 -9 2
-20 0 -18 7 -20 61 -20 l61 0 -4 173 c-3 154 -5 176 -25 213 -61 115 -196 168
-323 129z m161 -136 c40 -28 62 -83 57 -139 -11 -115 -131 -171 -213 -99 -63
56 -71 147 -18 210 50 60 115 70 174 28z"/>
<path d="M1345 761 c-95 -43 -149 -133 -149 -246 0 -156 102 -269 243 -268 48
0 77 8 145 41 16 8 -1 -90 -21 -117 -42 -57 -148 -65 -195 -16 -20 22 -32 25
-96 25 l-72 0 15 -37 c62 -153 320 -192 436 -66 60 64 64 81 67 299 3 190 2
205 -18 253 -25 57 -81 113 -136 136 -51 21 -168 19 -219 -4z m181 -120 c63
-39 85 -147 41 -212 -12 -19 -40 -42 -61 -53 -32 -16 -44 -17 -76 -7 -49 14
-96 68 -105 119 -10 61 30 142 80 163 35 14 89 10 121 -10z"/>
<path d="M1980 767 c-58 -19 -135 -103 -154 -166 -30 -102 -12 -197 50 -269
47 -55 104 -83 179 -89 116 -10 215 41 269 137 26 46 31 66 31 120 0 36 -4 78
-8 94 l-8 29 -122 -121 c-67 -67 -127 -122 -132 -122 -14 0 -165 153 -165 167
0 6 14 23 32 38 l31 26 49 -48 48 -47 95 94 c52 52 95 97 95 101 0 3 -23 18
-51 33 -40 22 -67 29 -127 32 -43 2 -92 -2 -112 -9z"/>
</g>
</svg>
