<?xml version="1.0" encoding="UTF-8"?>
<svg id="Capa_1" xmlns="http://www.w3.org/2000/svg" version="1.1" viewBox="0 0 400 102">
  <!-- Generator: Adobe Illustrator 30.1.0, SVG Export Plug-In . SVG Version: 2.1.1 Build 136)  -->
  <defs>
    <style>
      .st0 {
        fill: #156eae;
      }

      .st1 {
        fill: #b4b2b3;
      }
    </style>
  </defs>
  <path class="st1" d="M400,25.74v10.5c-5.45,1.18-15.58.48-15.66,11.17l-.24,30.12c-4.62.41-8.54.41-13.24,0v-31.54c0-7.33,3.65-14.28,9.01-17.68,6.2-3.93,13.94-5.62,20.13-2.56Z"/>
  <path class="st1" d="M347.57,77.33c-1.38-.33-.8-3.27-1.28-3.89-10.28,8.59-24.96,7.05-33.63-3.21-8.54-10.12-9.06-24.88-1.02-35.68,7.15-9.6,19.63-12.54,30.73-8.65,10.49,3.68,17.43,14.12,17.38,26.09l-.12,25.57c-3.96.1-7.69.82-12.06-.22ZM346.04,51.42c-.21-9.13-7.93-16.29-16.42-13.87-6.49,1.85-9.78,7.92-9.88,13.92-.1,5.78,2.68,11.6,8.59,13.96,4.59,1.83,9.39.83,12.99-2.46,2.67-2.44,4.85-6.27,4.73-11.54Z"/>
  <path class="st1" d="M260.57,73.89l-.46,27.02c-4.86.12-9.01.38-13.68-.21l.24-51.44c.05-11.91,8.9-21.39,19.25-24.05,11.76-3.03,23.89,1.02,30.19,11.54,6.65,11.09,5.16,25.28-3.62,34.6s-21.47,10.4-31.92,2.54ZM286.46,52.61c.3-5.36-1.48-9.2-4.52-12.07s-7.22-4.33-11.62-3.06c-6.5,1.87-10.09,7.83-10.12,14.09s3.47,12.39,9.93,14.25c8.39,2.41,15.83-4.26,16.33-13.21Z"/>
  <path class="st0" d="M153,102h-15.74c-7.51-4.19-15.26-6.87-17.03-18.02,4.33.32,10.45-1.53,14.17.48,4.86,4.49,10.7,6.71,17.32,3.83,5.08-2.2,7.91-8.77,7.02-15.5-10.39,8.02-24.5,6.54-33.09-3.58-8.06-9.5-9.02-23.3-2.29-34.02,6.53-10.39,18.92-14.22,30.7-10.8,10.58,3.08,18.55,13.35,18.56,25.63,0,9.8.23,19.48-.48,29.08-.86,11.77-8.84,19.48-19.15,22.88ZM158.79,53.33c1.45-8.56-4.19-17.13-12.75-17.26-8.98-.14-14.29,8.57-13.19,16.94.91,6.93,6.09,12.03,12.64,12.23,6.27.19,12.04-4.51,13.29-11.9Z"/>
  <path class="st0" d="M0,76V24C5.06,10.22,17.35,1.32,32.51,4.78c12.86,2.93,21.15,14.58,19.99,27.53-1.08,12.04-10.54,23.19-23.46,23.4l-15.27.25-.31,19.96-13.46.07ZM14.06,43.26c5.54-.22,9.51.35,13.97-.21,6.8-.86,11.24-7.17,10.93-13.48s-5.04-12.11-12.08-12.49-13.01,5.71-13.07,12.81c-.04,4.6-.34,8.47.25,13.36Z"/>
  <path class="st0" d="M207.88,64.25c10.09-7.12,16.34-16.46,25.88-24.26,4.05,9.02,2.98,18.61-2.4,26.62-4.7,7.01-12.91,11.35-22.37,11.75-15.93.68-28.29-11.31-28.22-27.43.04-8.69,3.74-16.66,10-21.69,10.31-8.28,26.3-7.61,36.5,1.89l-18.51,19.3-10.07-8.2c-1.92-1.56-5.48,3.58-6.68,5.8l15.86,16.2Z"/>
  <path class="st0" d="M110.41,76.39c-6.06-.5-13.12,2.67-13.89-3.75-9.67,7.28-23.1,6.7-31.85-2.41-11.22-11.68-10.58-31.03,2.04-41.48,8.28-6.87,19.82-7.63,29.59-2.86,8.75,4.28,14.33,14.2,14.27,25.11l-.15,25.41ZM96.79,48.71c-.82-7.4-6.18-12.55-12.32-12.94-6.69-.42-12.15,4.44-13.59,11.26-1.77,8.37,3.17,17.42,12.22,17.87,8.49.43,14.63-7.61,13.68-16.2Z"/>
</svg>