<?xml version="1.0" encoding="UTF-8"?>
<svg id="Capa_1" xmlns="http://www.w3.org/2000/svg" version="1.1" viewBox="0 0 669.36 147.06">
  <!-- Generator: Adobe Illustrator 30.1.0, SVG Export Plug-In . SVG Version: 2.1.1 Build 136)  -->
  <defs>
    <style>
      .st0 {
        fill: #f92606;
      }

      .st1 {
        fill: #f92809;
      }
    </style>
  </defs>
  <path class="st1" d="M274.26,84.53c1.04-2.51,2.22-4.61,1.95-7.99l-20.5.54-16.18,38.72c-6.91,1.01-13.31.82-20.21.56l16.07-39.03-21.69-.11-15.66,39.16-19.74.02c.89-3.32,1.9-6.15,3.18-9.33l15.68-38.89c8.37-.35,15.75.07,23.8.08l59.28.04c4.05,0,7.81-.93,11.79.02,4.14.98,5.92,5.32,4.42,9.24l-6.13,16c-2.82,7.34-5.42,14.49-8.36,21.75-.5,1.22-3.33,1.1-4.4,1.08l-16.35-.27,13.07-31.59Z"/>
  <path class="st0" d="M553.58,122.97l32.41-.13c4.04-.02,7.39-2.98,7.43-7.09l-29.22-.4c-2.27-.03-4.77-1.07-5.85-2.35-1.52-1.81-2.01-4.77-1.28-7.18,2.74-9.02,6.81-17.24,10.32-25.98,2.63-8.08,9.5-12.95,18.1-12.92l48.95.16-21.68,53.02c-3.15,7.69-9.84,12.54-18.05,12.76l-15.18.41-30.96.24c.36-3.86,2.26-7.2,5.02-10.55ZM595.12,107.09c2.21,0,3.29-1.12,3.93-2.73l11.35-28.34c-5.48-.35-20.14-1.9-22.38,3.48l-10.38,24.88c-.43,1.04.1,2.72,1.29,2.72h16.19Z"/>
  <path class="st1" d="M393.77,113.33c-4.38-4.78.66-12.16,2.73-18.6,2.26-7.03,8.44-11.74,15.97-11.74h26.52c1.85,0,3.23-.59,4.17-1.44s1.88-4.54.37-4.89l-36.24-.93c.58-3.15,1.99-5.68,3.64-8.24l48.83.3c4.03.68,6.85,5.5,5.17,9.59l-15.73,38.35-48.86-.14c-2.54,0-5.08-.66-6.57-2.28ZM433.61,107.33l5.38-13.79c.27-.69-.15-1.72-.37-2.08-.69-1.16-17.39-1.03-19.27-.17-1.08-1.54-7.63,15.75-6.06,15.9l20.32.15Z"/>
  <path class="st1" d="M350.33,67.86l20.61.03-19.34,48.4-47.5.02c-2.85,0-5.49-.97-7.84-2.16-3.19-3.63-.81-9.9,1.06-14.53l12.75-31.69,20.93.15-15.06,36.09c-.08.82-.4,1.41-.29,1.9.58,2.62,15.37,1.04,19.42,1.27l15.28-39.47Z"/>
  <path class="st1" d="M129.22,105.21c-2.98,7.28-9.53,10.97-17.21,11.46-11.97.76-23.87.35-35.95.18-2.35-.03-4.79-.94-5.93-2.26-1.66-1.91-1.96-4.61-1-6.99l9.7-23.96c3.52-8.7,10.04-15.15,19.96-15.08l34.91.27c2.39.02,4.55,1.49,5.38,2.84,1.07,1.76,1.95,4.65,1.09,6.76l-10.96,26.79ZM104.17,108.47c2.57-.02,4.72-1.83,5.62-3.95l10.45-24.69c.31-.73-.1-1.66-.31-2.04-.22-.41-1-.73-1.81-.73l-10.83.03c-3.33,0-6.37,1.88-7.74,5.02l-9.79,22.56c-.44,1.02-.15,2.37.25,2.95.38.54,1.26.97,2.23.96l11.92-.1Z"/>
  <path class="st1" d="M545.82,114.33c-.7,2.04-16.53,1.04-20.38,1.1,1.9-8.04,5.65-14.96,8.35-22.65l6-17.04-19.16-.06-16.18,39.82-19.96-.2,19.5-47.78,21.3-.15c9.8-.07,19.37-.24,29.18-.2,2.19,0,4.15,1.39,5.16,2.48,3.82,4.13-2.24,15.55-4.96,21.96-3.23,7.6-6.19,14.92-8.86,22.71Z"/>
  <path class="st1" d="M83.12,69.01c-8.5,13.5-6.8,8.14-21.41,9.68-6.8,13.19-10.16,24.76-16.71,38.01-6.76.22-13.2.62-20.47-.14l14.18-31.51,10.21-22.06c3.85-8.31,11.64-13.66,21.05-13.86,10.01-.21,19.61-.33,29.77.01-1.92,3.14-3.8,4.62-5.53,6.87-7.1,9.25-23.22-2.95-27.06,12.3l15.96.69Z"/>
  <path class="st1" d="M380.4,115.72c-7.36.03-13.82.47-21.06-.36l20.88-49.83c1.78-4.78,3.14-9.26,5.62-13.66l19.71.18-10.11,26.12-15.05,37.55Z"/>
  <path class="st1" d="M164.72,85.25l-12.18,31.18c-6.8.12-12.98.49-19.59-.29l13.99-34.78c7.3-17.93,26.27-12.24,42.67-13.24-.6,3.85-2.2,7.11-3.94,10.42-11.13,2.28-17-3.37-20.94,6.71Z"/>
  <path class="st1" d="M136.15,52.93c-11.77,7.39-15.12,11.21-29.11,8.86,1.9-4.09,4.5-6.13,6.94-9.13l22.18.27Z"/>
  <polygon class="st1" points="171.11 46.59 637.76 42.9 659.82 15.33 124.25 36.91 442.09 37.67 171.11 46.59"/>
</svg>